<?xml version="1.0" standalone="no"?>
<!DOCTYPE svg PUBLIC "-//W3C//DTD SVG 20010904//EN"
 "http://www.w3.org/TR/2001/REC-SVG-20010904/DTD/svg10.dtd">
<svg version="1.0" xmlns="http://www.w3.org/2000/svg"
 width="300.000000pt" height="300.000000pt" viewBox="0 0 300.000000 300.000000"
 preserveAspectRatio="xMidYMid meet">

<g transform="translate(0.000000,300.000000) scale(0.100000,-0.100000)"
fill="#000000" stroke="none">
<path d="M758 2623 c-29 -33 -208 -416 -208 -444 0 -33 23 -49 72 -49 45 0 76
24 99 76 22 52 46 64 129 64 67 0 85 -12 115 -80 20 -44 56 -61 113 -52 53 7
57 31 18 109 -19 37 -66 133 -103 213 -38 80 -77 153 -87 163 -13 12 -34 17
-75 17 -43 0 -62 -5 -73 -17z m202 -195 c122 -243 117 -228 77 -228 -29 0 -35
6 -67 68 l-36 67 -112 2 -112 2 -35 -70 c-32 -62 -38 -69 -65 -69 -17 0 -30 2
-30 5 0 3 45 95 100 205 l100 200 44 0 45 0 91 -182z"/>
<path d="M768 2471 c-25 -55 -43 -102 -40 -105 9 -9 180 -7 186 2 5 9 -84 202
-94 202 -3 0 -27 -45 -52 -99z m86 -57 c9 -23 8 -24 -12 -24 -26 0 -34 11 -21
27 15 17 26 17 33 -3z"/>
<path d="M1435 2624 c-78 -29 -116 -90 -100 -162 12 -56 88 -110 178 -127 19
-4 49 -16 67 -27 30 -18 31 -21 17 -35 -22 -22 -115 -28 -189 -13 -42 9 -63
10 -65 3 -2 -6 -9 -18 -17 -28 -11 -16 -15 -15 -43 14 -36 36 -84 41 -122 15
-22 -16 -23 -22 -17 -78 4 -38 0 -90 -9 -139 -8 -43 -15 -82 -15 -85 0 -4 -4
0 -10 8 -8 12 -12 12 -37 0 -34 -18 -43 -29 -36 -46 4 -12 -37 -48 -46 -39 -2
3 4 14 13 24 25 27 11 47 -19 27 -17 -11 -25 -12 -34 -3 -10 9 -18 5 -39 -21
-34 -41 -42 -41 -35 3 5 28 2 35 -11 35 -24 0 -56 -18 -88 -48 -26 -24 -41
-19 -17 5 18 18 1 35 -22 23 -27 -15 -24 -3 11 37 31 35 36 48 21 57 -5 3 -27
-16 -50 -42 -82 -92 -90 -99 -131 -120 -48 -24 -70 -20 -70 13 0 42 97 151
118 131 4 -4 -15 -27 -42 -50 -49 -42 -51 -65 -7 -51 30 9 81 73 81 99 0 53
-55 40 -130 -30 -60 -56 -79 -104 -56 -139 9 -14 26 -25 37 -25 25 0 77 26
107 54 22 20 24 20 34 3 9 -17 11 -17 28 -2 16 15 18 14 23 -5 5 -18 9 -20 27
-10 11 6 30 8 41 5 11 -4 26 -2 34 5 10 9 16 7 23 -6 9 -16 12 -17 35 -2 19
13 27 14 37 5 9 -9 15 -8 23 5 10 15 12 15 23 0 11 -15 16 -15 34 -4 19 11 24
11 35 -4 12 -17 14 -17 39 -1 15 10 30 16 35 13 4 -3 11 -70 14 -148 10 -214
42 -357 112 -503 139 -287 415 -384 581 -203 54 59 84 112 133 237 83 211 146
275 266 274 99 -1 197 -57 210 -120 4 -15 7 -31 8 -35 1 -3 35 22 75 55 l73
62 -83 6 c-72 6 -96 13 -177 52 -110 55 -149 64 -203 48 -61 -19 -111 -72
-194 -207 -42 -68 -77 -124 -79 -124 -1 0 -16 29 -34 64 -40 82 -127 164 -291
276 -183 123 -301 243 -271 273 8 8 11 7 11 -6 0 -21 9 -21 38 -1 20 14 22 14
22 0 0 -19 13 -20 42 -5 14 8 23 8 31 0 20 -20 56 -12 92 20 l35 31 -6 -31
c-6 -27 -4 -31 14 -31 12 0 24 4 27 10 4 6 13 5 25 -2 14 -9 25 -9 44 0 16 7
28 8 31 2 10 -17 52 -11 76 11 21 18 21 20 4 14 -43 -15 -55 -17 -55 -8 0 18
55 37 103 34 29 -2 47 1 47 8 0 6 -17 11 -38 11 -21 0 -43 5 -49 11 -16 16
-49 2 -88 -37 -59 -58 -78 -35 -25 31 32 40 41 78 16 69 -20 -8 -66 -69 -66
-87 0 -18 -28 -42 -37 -33 -4 3 -1 12 5 18 7 7 12 17 12 24 0 15 -52 25 -67
13 -7 -7 -14 -6 -18 1 -11 19 -36 10 -72 -25 -42 -41 -63 -46 -39 -11 17 27 4
48 -17 27 -15 -15 -27 -14 -27 4 0 19 -10 19 -37 0 -14 -10 -24 -12 -28 -5 -4
7 -13 7 -26 0 -20 -11 -28 -1 -42 55 -4 15 -5 14 -6 -7 -1 -18 -7 -28 -16 -28
-18 0 -18 16 -4 115 l11 75 49 -6 c44 -6 51 -4 78 23 29 30 30 30 49 11 25
-25 148 -43 225 -34 31 4 80 19 109 34 44 23 56 35 72 73 19 47 19 47 -2 90
-26 54 -65 81 -162 114 -89 30 -102 41 -76 61 23 16 95 18 144 4 29 -8 37 -6
58 15 41 41 24 88 -37 105 -50 15 -188 11 -234 -6z m198 -10 c28 -5 37 -11 37
-26 0 -16 -5 -19 -22 -15 -65 17 -112 19 -153 7 -52 -15 -67 -30 -67 -67 0
-35 26 -56 99 -77 106 -31 151 -56 168 -93 15 -30 15 -36 0 -67 -26 -55 -89
-80 -200 -80 -98 1 -148 14 -139 38 4 11 13 12 42 4 19 -5 71 -8 115 -6 72 3
81 6 103 31 13 16 24 36 24 46 0 30 -45 62 -124 86 -130 40 -168 75 -152 140
16 62 144 99 269 79z m-389 -367 c34 -25 -8 -67 -53 -52 -43 13 -28 65 19 65
9 0 24 -6 34 -13z m-124 -311 c0 -16 -45 -66 -60 -66 -19 0 -10 22 21 51 35
33 39 34 39 15z m334 -53 c-19 -14 -44 -17 -44 -5 0 4 12 14 28 23 31 17 45 3
16 -18z m-633 6 c-13 -11 -27 -17 -30 -13 -7 7 28 34 43 34 6 -1 0 -10 -13
-21z m354 -6 c-11 -7 -22 -13 -27 -13 -14 0 -8 19 9 29 25 13 40 1 18 -16z
m54 -82 c40 -78 90 -139 207 -251 156 -150 184 -182 212 -235 33 -66 36 -151
6 -192 -69 -95 -195 -76 -316 48 -112 114 -184 319 -195 549 -6 125 -6 126 18
137 31 14 34 11 68 -56z"/>
<path d="M2170 2626 c-139 -40 -212 -121 -212 -236 0 -41 7 -71 26 -108 51
-101 148 -145 321 -145 127 0 169 13 172 53 2 14 -5 34 -15 45 -15 18 -29 20
-142 20 -113 0 -129 2 -162 23 -91 57 -65 185 47 228 35 13 66 16 145 12 85
-4 102 -2 115 12 24 26 19 67 -11 87 -34 22 -219 28 -284 9z m223 -12 c21 -4
37 -12 37 -20 0 -21 -12 -23 -68 -12 -66 13 -169 -3 -226 -35 -46 -26 -86 -93
-86 -145 0 -49 40 -113 88 -140 36 -20 159 -44 187 -36 6 1 31 5 58 8 36 4 47
2 47 -8 0 -19 -23 -26 -110 -33 -88 -6 -180 13 -248 53 -74 44 -105 120 -83
204 14 52 39 82 99 117 78 46 198 64 305 47z"/>
<path d="M2680 2595 c0 -8 8 -15 18 -16 10 0 12 -3 5 -6 -24 -9 -13 -23 18
-23 25 0 29 3 20 13 -6 8 -8 17 -4 21 9 9 -16 26 -39 26 -10 0 -18 -7 -18 -15z"/>
<path d="M2758 2561 l4 -50 -38 -4 -39 -4 43 -1 c24 -1 41 -6 37 -11 -3 -6 1
-25 10 -43 15 -33 15 -32 10 35 -7 84 -15 127 -25 127 -4 0 -5 -22 -2 -49z"/>
<path d="M2703 2533 c9 -2 25 -2 35 0 9 3 1 5 -18 5 -19 0 -27 -2 -17 -5z"/>
<path d="M2715 2420 c-3 -5 3 -10 15 -10 12 0 18 5 15 10 -3 6 -10 10 -15 10
-5 0 -12 -4 -15 -10z"/>
<path d="M2710 2306 c0 -43 2 -46 26 -46 23 0 25 3 22 43 -2 35 -7 43 -25 45
-21 3 -23 -1 -23 -42z"/>
<path d="M1812 2268 c-40 -20 -38 -84 3 -118 27 -23 95 -17 117 10 26 32 22
57 -11 91 -31 31 -68 37 -109 17z m82 -31 c9 -15 7 -21 -9 -33 -39 -29 -95 5
-65 41 17 20 59 16 74 -8z"/>
<path d="M2714 2237 c-3 -8 -4 -32 -2 -53 2 -32 7 -40 27 -42 34 -5 42 8 33
58 -6 36 -12 46 -30 48 -13 2 -24 -3 -28 -11z"/>
<path d="M2716 2118 c-3 -7 -7 -65 -10 -129 -12 -252 -54 -444 -152 -698 -187
-483 -503 -833 -992 -1097 l-72 -39 -77 40 c-71 37 -244 153 -365 245 -29 21
-55 37 -60 34 -4 -3 -8 0 -8 5 0 6 -7 11 -15 11 -8 0 -15 7 -15 15 0 20 -10
19 -27 -2 -28 -36 -33 -52 -21 -59 6 -4 8 -3 5 2 -3 6 3 15 14 22 10 7 19 8
19 3 0 -5 -5 -11 -11 -13 -5 -2 4 -17 21 -33 39 -38 44 -43 76 -83 17 -21 34
-32 52 -32 17 0 38 -12 57 -31 77 -78 92 -91 120 -106 17 -8 39 -23 50 -33 11
-9 46 -25 77 -35 32 -10 63 -24 69 -31 6 -8 21 -14 33 -14 48 0 259 95 310
140 18 16 75 57 126 92 52 35 123 90 158 123 117 111 292 307 329 369 21 34
53 81 72 106 68 89 190 375 221 519 10 47 24 100 30 116 6 17 13 95 15 175 2
92 8 160 18 186 7 23 15 75 16 115 2 41 4 85 5 99 1 21 -4 25 -32 28 -20 2
-34 -2 -36 -10z"/>
<path d="M2240 2004 c-41 -35 -73 -99 -66 -130 7 -28 27 -30 63 -7 24 16 26
16 39 -2 13 -17 18 -18 46 -7 18 6 34 8 37 4 4 -5 38 -9 78 -9 60 -1 74 2 90
19 18 21 18 21 -7 8 -21 -10 -23 -10 -12 1 13 14 17 61 5 73 -4 3 -28 -14 -54
-40 -35 -35 -52 -45 -66 -40 -16 7 -14 10 12 23 33 18 46 33 39 45 -11 17 -36
6 -78 -32 -68 -63 -91 -50 -35 20 19 24 29 47 27 61 l-3 24 -28 -30 c-16 -17
-36 -46 -45 -65 -15 -32 -16 -33 -20 -12 -4 28 -23 24 -38 -7 -11 -22 -21 -27
-31 -18 -2 3 18 30 46 61 69 76 70 117 1 60z m241 -117 c-16 -16 -26 0 -10 19
9 11 15 12 17 4 2 -6 -1 -17 -7 -23z"/>
<path d="M1873 1988 c-69 -76 -68 -162 2 -130 13 6 27 7 30 3 6 -11 145 -9
163 2 22 14 13 28 -10 16 -19 -9 -21 -9 -10 2 13 14 17 61 5 72 -3 4 -17 -5
-30 -19 -26 -28 -31 -43 -8 -24 13 10 15 9 15 -9 0 -23 -10 -27 -28 -9 -9 9
-16 8 -30 -5 -19 -18 -42 -23 -42 -9 0 4 14 15 31 25 32 18 35 40 5 45 -10 2
-33 -13 -55 -37 -21 -23 -43 -41 -49 -41 -21 0 -13 32 18 67 46 51 39 101 -7
51z"/>
<path d="M2415 1975 c-29 -13 -29 -13 -5 -14 28 -1 57 14 44 22 -5 3 -22 -1
-39 -8z"/>
<path d="M2090 1920 c0 -5 18 -10 40 -10 22 0 40 5 40 10 0 6 -18 10 -40 10
-22 0 -40 -4 -40 -10z"/>
<path d="M2220 1461 c-35 -67 19 -120 68 -68 27 28 28 49 4 70 -25 23 -59 21
-72 -2z"/>
<path d="M2281 1254 c-55 -49 -101 -120 -207 -318 -87 -161 -165 -250 -262
-298 -58 -29 -76 -33 -147 -33 -44 0 -100 4 -125 8 -42 7 -44 7 -25 -8 43 -34
176 -68 270 -69 105 -1 157 18 218 79 56 56 80 103 161 316 84 222 105 267
153 327 45 55 28 54 -36 -4z"/>
<path d="M705 1096 c-5 -2 -23 -7 -39 -11 -40 -9 -23 -19 64 -40 184 -43 366
-121 454 -194 79 -67 74 -56 -20 45 -55 60 -149 128 -223 162 -59 27 -90 35
-150 38 -42 2 -80 2 -86 0z"/>
<path d="M859 860 c-25 -4 -61 -16 -80 -26 l-34 -19 130 -7 c150 -7 283 -34
387 -77 l73 -30 -35 30 c-101 87 -318 151 -441 129z"/>
<path d="M609 762 c6 -12 16 -24 22 -28 8 -4 8 -1 0 14 -6 12 -16 24 -22 28
-8 4 -8 1 0 -14z"/>
<path d="M1290 420 c-10 -6 -11 -10 -2 -10 8 0 12 -16 12 -45 0 -33 4 -45 15
-45 12 0 15 13 15 55 0 56 -8 66 -40 45z"/>
<path d="M1396 414 c-9 -8 -16 -22 -16 -29 0 -18 37 -38 56 -31 8 3 14 2 14
-2 0 -5 -12 -13 -27 -19 l-28 -11 28 -1 c50 -2 88 64 55 97 -17 17 -64 15 -82
-4z m62 -27 c3 -14 -1 -18 -20 -15 -12 2 -24 11 -26 21 -3 14 1 18 20 15 12
-2 24 -11 26 -21z"/>
<path d="M1527 423 c-4 -3 -7 -17 -7 -30 0 -18 6 -23 24 -23 14 0 28 -5 32
-11 9 -14 -16 -30 -38 -25 -10 2 -20 1 -23 -4 -3 -4 7 -11 21 -14 26 -7 74 15
74 34 0 15 -31 40 -51 40 -10 0 -19 5 -19 10 0 6 14 10 30 10 17 0 30 5 30 10
0 11 -63 14 -73 3z"/>
<path d="M1644 405 c-31 -31 -28 -64 7 -84 22 -12 29 -12 54 0 49 24 41 56
-16 69 l-34 8 33 7 c38 9 43 25 7 25 -14 0 -37 -11 -51 -25z m60 -44 c3 -5 -1
-14 -9 -21 -12 -10 -18 -10 -30 0 -18 15 -11 30 15 30 10 0 21 -4 24 -9z"/>
</g>
</svg>
